# xmcd
#
# Track frame offsets:
#	150
#	38566
#	62081
#	92656
#	116048
#	129471
#	154175
#	186547
#	201706
#	224656
#	281783
#	300308
#	319140
#	326810
#
# Disc length: 4670 seconds
#
# Revision: 0
# Processed by: cddbd v1.4PL0 Copyright (c) Steve Scherf et al.
# Submitted via: EasyCDDAExtractor 4.6.9.1
#
DISCID=dd123c0e
DTITLE=Whoopass - Live and Uncanned
DYEAR=1999
DGENRE=comedy
TTITLE0=Blowed Up
TTITLE1=Damn Tourists
TTITLE2=Fishin' Ain't for Pussies
TTITLE3=Too Drunk to Make Love
TTITLE4=Catch it and Paint it Green
TTITLE5=She's Fat, I'm Drunk, It's On
TTITLE6=And Thats Good
TTITLE7=Generation ButtCrack
TTITLE8=If you Leave (Can I Come Too)
TTITLE9=I like the Shit Out of You
TTITLE10=Ready for the Weekend (Live)
TTITLE11=Drunk at Denny's
TTITLE12=Ready for the Weekend
TTITLE13=Bubba's Beer Song
EXTD=
EXTT0=
EXTT1=
EXTT2=
EXTT3=
EXTT4=
EXTT5=
EXTT6=
EXTT7=
EXTT8=
EXTT9=
EXTT10=
EXTT11=
EXTT12=
EXTT13=
PLAYORDER=
